<?xml version="1.0" encoding="utf-8"?>
<!-- Generator: Adobe Illustrator 23.1.0, SVG Export Plug-In . SVG Version: 6.00 Build 0)  -->
<svg version="1.1" id="Layer_1" xmlns="http://www.w3.org/2000/svg" xmlns:xlink="http://www.w3.org/1999/xlink" x="0px" y="0px"
	 viewBox="0 0 300 150" style="enable-background:new 0 0 300 150;" xml:space="preserve">
<style type="text/css">
	.st0{fill:#3A94ED;}
	.st1{fill:#FF3E3E;}
	.st2{fill:#FFFFFF;}
</style>
<g>
	<g>
		<path class="st0" d="M53.4,97.3h-39c-2.1,0-3.9-1-4.9-2.8s-0.9-3.8,0.1-5.6l39.5-66.1l8.6,5.1L22.2,87.3h31.2V97.3z"/>
		<polygon class="st1" points="68.9,104.3 58.9,104.3 58.9,81.3 32.9,81.3 38.5,71.3 68.9,71.3 		"/>
	</g>
	<g>
		<path class="st2" d="M74.9,71.4h11.8c6.9,0,12.6,2.4,12.6,10.2c0,7.5-5.7,10.7-12.6,10.7h-4.4v11.8h-7.4V71.4z M86.1,86.5
			c3.9,0,6-1.7,6-4.9c0-3.2-2.1-4.3-6-4.3h-3.8v9.2H86.1z M85.4,90.4l5.1-4.7l10.4,18.4h-8.3L85.4,90.4z"/>
		<path class="st2" d="M104.1,87.6c0-10.7,6-16.8,14.8-16.8s14.9,6.2,14.9,16.8c0,10.7-6,17.1-14.8,17.1S104.1,98.3,104.1,87.6z
			 M126.2,87.6c0-6.6-2.8-10.4-7.3-10.4s-7.3,3.9-7.3,10.4c0,6.6,2.8,10.7,7.3,10.7S126.2,94.2,126.2,87.6z"/>
		<path class="st2" d="M136.6,71.4h7.6l2.3,15.3c0.4,3.4,0.9,6.9,1.3,10.3h0.2c0.6-3.4,1.3-6.9,1.9-10.3l3.5-15.3h6.3l3.5,15.3
			c0.6,3.3,1.3,6.8,2,10.3h0.2c0.4-3.5,0.9-7,1.3-10.3l2.3-15.3h7.1l-5.8,32.7H161l-3.2-14.8c-0.5-2.5-0.9-5.1-1.3-7.6h-0.2
			c-0.4,2.4-0.8,5.1-1.3,7.6l-3.2,14.8h-9.1L136.6,71.4z"/>
		<path class="st2" d="M178.3,100l4.2-5.1c2.3,2,5.3,3.4,8,3.4c3.1,0,4.6-1.2,4.6-3.2c0-2.1-1.9-2.7-4.7-3.9l-4.2-1.8
			c-3.4-1.4-6.6-4.2-6.6-8.9c0-5.4,4.8-9.7,11.6-9.7c3.8,0,7.7,1.5,10.5,4.3l-3.7,4.7c-2.1-1.7-4.2-2.6-6.8-2.6
			c-2.5,0-4.2,1.1-4.2,2.9c0,2,2.1,2.7,5,3.9l4.2,1.7c4,1.6,6.5,4.3,6.5,8.9c0,5.4-4.5,10.1-12.3,10.1
			C186.2,104.7,181.6,103.1,178.3,100z"/>
		<path class="st2" d="M206.7,87.9c0-10.8,7.2-17.1,15.4-17.1c4.2,0,7.6,2,9.8,4.2l-3.9,4.7c-1.6-1.5-3.4-2.6-5.8-2.6
			c-4.5,0-8,3.9-8,10.5c0,6.7,3.1,10.6,7.9,10.6c2.7,0,4.8-1.3,6.4-3.1l3.9,4.6c-2.7,3.2-6.3,4.8-10.5,4.8
			C213.6,104.7,206.7,98.9,206.7,87.9z"/>
		<path class="st2" d="M243.5,71.4h8.8l10.3,32.7h-7.8l-4.3-16.6c-0.9-3.3-1.8-7.1-2.6-10.5h-0.2c-0.8,3.4-1.7,7.3-2.6,10.5
			l-4.3,16.6h-7.6L243.5,71.4z M240,90.6h15.7v5.7H240V90.6z"/>
		<path class="st2" d="M265.7,71.4h7.6l8.5,16.2l3.2,7.2h0.2c-0.4-3.4-0.9-8-0.9-11.9V71.4h7v32.7h-7.5l-8.5-16.3l-3.2-7.1h-0.3
			c0.4,3.6,0.9,8,0.9,11.8v11.6h-7V71.4z"/>
	</g>
</g>
</svg>
